:SAMPLES-PER-SECOND 30
:FRAME-RANGE 1-2091
:FULLY-SPECIFIED
:DEGREES
393
root  -33.964 38.6912 81.434 168.744 67.7745 166.671
RightUpLeg  -9.63026 -0.836435 -15.6059
RightLeg  9.86526 8.54666 -2.4182
RightFoot  -4.43441 -1.10499 17.6756
RightToes  5.82063e-011 0 -3.6325e-017
Spine  11.1103 0.616457 6.19126
Spine1  -0.118205 4.53113 -17.5124
HEad  17.1926 -29.3326 -4.3782
LeftShoulder1  1.49879 -0.818715 -28.5894
LeftArm  10.0063 6.02834 -23.2753
LeftForeArm  8.87806 -31.7787 -6.49131
LeftHand  0.288459 -2.59402 -3.99884
RightShoulder  2.71879 24.1579 1.4991
RightArm  38.1995 14.8777 14.9355
RightForeArm  31.0114 37.3836 6.66645
RightHand  1.55518 6.77263 14.3741
LeftUpLeg  -13.6516 -4.90034 -3.43398
LeftLeg  16.2484 -12.5124 -3.21132
LeftFoot  -3.521 0.0562531 -0.512769
LeftToes  -6.27584e-011 -2.25241e-010 2.80627e-011
394
root  -33.5713 38.7326 81.9839 173.532 65.2116 170.922
RightUpLeg  -9.74014 -3.09844 -13.6639
RightLeg  10.7313 7.61957 -1.66435
RightFoot  -4.87069 -0.956372 16.2273
RightToes  5.82063e-011 0 -3.6325e-017
Spine  10.6773 0.772224 9.20789
Spine1  -0.0211845 4.93498 -17.5998
HEad  17.4225 -28.788 -4.95483
LeftShoulder1  1.48235 -0.718151 -29.0341
LeftArm  9.10962 5.72636 -23.6893
LeftForeArm  8.3644 -30.7359 -6.25782
LeftHand  0.211151 -2.23717 -3.03846
RightShoulder  3.73458 24.5214 5.43085
RightArm  41.3478 13.1985 15.9283
RightForeArm  30.223 36.5806 6.49477
RightHand  1.35331 6.38905 12.9059
LeftUpLeg  -14.9087 -8.56971 -0.897251
LeftLeg  16.8431 -11.7066 -3.24211
LeftFoot  -3.89899 0.109402 -1.32152
LeftToes  -6.27584e-011 -2.25241e-010 2.80627e-011
395
root  -33.1737 38.8033 82.5141 176.35 62.3411 173.279
RightUpLeg  -9.24373 -7.5475 -12.4559
RightLeg  10.6979 8.74439 -0.412562
RightFoot  -5.29505 -0.846773 15.2629
RightToes  5.82063e-011 0 -3.6325e-017
Spine  10.4145 1.36799 9.86674
Spine1  -0.182799 5.0833 -15.2954
HEad  17.9231 -27.4937 -5.73945
LeftShoulder1  1.42999 -0.531185 -29.3673
LeftArm  8.91108 6.87766 -24.8626
LeftForeArm  8.07185 -30.3751 -6.18478
LeftHand  0.150037 -1.94184 -2.21712
RightShoulder  5.30103 25.2497 11.1061
RightArm  46.3042 11.6893 16.2602
RightForeArm  28.3816 32.5124 5.55654
RightHand  0.940757 5.90208 9.30037
LeftUpLeg  -15.5975 -9.57037 0.716224
LeftLeg  16.3487 -10.5263 -2.83229
LeftFoot  -4.30592 0.189588 -2.66328
LeftToes  -6.27584e-011 -2.25241e-010 2.80627e-011
396
root  -32.7559 38.8797 83.0071 178.055 58.9789 174.487
RightUpLeg  -8.50076 -9.73526 -11.9008
RightLeg  10.658 7.38269 0.483892
RightFoot  -5.94386 -0.744265 14.8491
RightToes  5.82063e-011 0 -3.6325e-017
Spine  10.2667 1.77927 9.7183
Spine1  -0.56685 5.04094 -13.3228
HEad  18.3093 -25.7966 -6.21434
LeftShoulder1  1.35072 -0.298603 -29.4489
LeftArm  9.76226 8.71372 -25.973
LeftForeArm  7.56157 -30.226 -6.17649
LeftHand  0.146115 -2.05041 -2.11372
RightShoulder  7.05104 25.301 17.7032
RightArm  54.3955 11.4245 16.946
RightForeArm  22.2459 24.9575 4.16826
RightHand  0.275621 5.24445 2.69277
LeftUpLeg  -16.1728 -6.64562 1.12939
LeftLeg  15.5457 -8.43944 -1.9853
LeftFoot  -4.69241 0.260443 -3.99829
LeftToes  -6.27584e-011 -2.25241e-010 2.80627e-011
397
root  -32.3548 39.0031 83.4104 179.178 54.9248 174.93
RightUpLeg  -7.50016 -10.7502 -11.5327
RightLeg  10.0264 4.35243 0.568503
RightFoot  -6.21736 -0.684289 14.2738
RightToes  5.82063e-011 0 -3.6325e-017
Spine  9.78068 1.87379 9.3273
Spine1  -0.721091 4.7238 -11.6093
HEad  18.0832 -24.1276 -6.54995
LeftShoulder1  1.28874 -0.101745 -29.6702
LeftArm  11.9291 10.4712 -26.3996
LeftForeArm  6.40862 -29.602 -6.08752
LeftHand  0.210503 -2.39758 -2.95242
RightShoulder  8.39208 24.109 24.0287
RightArm  48.871 12.4631 16.8273
RightForeArm  24.3564 18.2993 8.05722
RightHand  -0.078599 5.5781 -1.15137
LeftUpLeg  -16.8335 -2.65364 0.768021
LeftLeg  15.1136 -7.59655 -1.78572
LeftFoot  -6.40019 0.268609 -5.3343
LeftToes  -6.27584e-011 -2.25241e-010 2.80627e-011
